<?xml version="1.0" encoding="UTF-8" standalone="no"?>
<svg width="14px" height="14px" viewBox="0 0 14 14" version="1.1" xmlns="http://www.w3.org/2000/svg" xmlns:xlink="http://www.w3.org/1999/xlink">
    <!-- Generator: Sketch 50 (54983) - http://www.bohemiancoding.com/sketch -->
    <title>X</title>
    <desc>Created with Sketch.</desc>
    <defs></defs>
    <g id="X" stroke="none" stroke-width="1" fill="none" fill-rule="evenodd">
        <path d="M8.4627417,7 L13.6970563,12.2343146 C14.1009812,12.6382395 14.1009812,13.2931313 13.6970563,13.6970563 C13.2931313,14.1009812 12.6382395,14.1009812 12.2343146,13.6970563 L7,8.4627417 L1.76568542,13.6970563 C1.36176046,14.1009812 0.706868692,14.1009812 0.302943725,13.6970563 C-0.100981242,13.2931313 -0.100981242,12.6382395 0.302943725,12.2343146 L5.5372583,7 L0.302943725,1.76568542 C-0.100981242,1.36176046 -0.100981242,0.706868692 0.302943725,0.302943725 C0.706868692,-0.100981242 1.36176046,-0.100981242 1.76568542,0.302943725 L7,5.5372583 L12.2343146,0.302943725 C12.6382395,-0.100981242 13.2931313,-0.100981242 13.6970563,0.302943725 C14.1009812,0.706868692 14.1009812,1.36176046 13.6970563,1.76568542 L8.4627417,7 Z" id="Combined-Shape" fill="#787878"></path>
    </g>
</svg>